<svg width="18" height="20" viewBox="0 0 18 20" fill="none" xmlns="http://www.w3.org/2000/svg">
<path d="M9.00005 0.0175018C6.77621 0.0201487 4.64423 0.904794 3.07182 2.47736C1.49941 4.04993 0.614975 6.182 0.612549 8.40584C0.612549 12.8008 7.41755 18.68 8.19588 19.3367L9.00171 20.0175L9.80755 19.3367C10.5842 18.68 17.3909 12.8008 17.3909 8.40584C17.3885 6.18142 16.5036 4.04885 14.9304 2.47619C13.3573 0.903522 11.2245 0.0192664 9.00005 0.0175018ZM9.00005 16.72C6.44588 14.3933 3.11088 10.6133 3.11088 8.40584C3.11088 6.84393 3.73135 5.346 4.83578 4.24157C5.94021 3.13713 7.43815 2.51667 9.00005 2.51667C10.562 2.51667 12.0599 3.13713 13.1643 4.24157C14.2688 5.346 14.8892 6.84393 14.8892 8.40584C14.8892 10.6092 11.5534 14.3908 9.00005 16.72Z" fill="#5B62FF"/>
<path d="M8.99994 10.8325C10.3793 10.8325 11.4974 9.71432 11.4974 8.33499C11.4974 6.95566 10.3793 5.83749 8.99994 5.83749C7.62061 5.83749 6.50244 6.95566 6.50244 8.33499C6.50244 9.71432 7.62061 10.8325 8.99994 10.8325Z" fill="#5B62FF"/>
</svg>
