<!-- icon666.com - MILLIONS vector ICONS FREE --><svg viewBox="0 0 512 512" xmlns="http://www.w3.org/2000/svg" xmlns:xlink="http://www.w3.org/1999/xlink"><linearGradient id="a" gradientUnits="userSpaceOnUse" x1="0" x2="512" y1="256" y2="256"><stop offset="0" stop-color="#00f1ff"></stop><stop offset=".231" stop-color="#00d8ff"></stop><stop offset=".5138" stop-color="#00c0ff"></stop><stop offset=".7773" stop-color="#00b2ff"></stop><stop offset="1" stop-color="#00adff"></stop></linearGradient><path d="m512 256c0 141.386719-114.613281 256-256 256s-256-114.613281-256-256 114.613281-256 256-256 256 114.613281 256 256zm0 0" fill="url(#a)"></path><g fill="#fff"><path d="m360.253906 366.667969h-63.167968l-10.804688-14.898438c-2.511719-3.46875-6.535156-5.519531-10.820312-5.519531h-38.390626c-4.414062 0-8.539062 2.175781-11.03125 5.816406l-9.996093 14.601563h-49.296875v-37.488281c0-11.429688 10.910156-20.726563 24.316406-20.726563h129.875c13.410156 0 24.316406 9.160156 24.316406 20.417969 0 8.285156 6.714844 15 15 15s15-6.714844 15-15c0-12.640625-5.046875-24.195313-13.355468-33.054688-.097657-.195312-.179688-.390625-.285157-.585937l-25.296875-45.675781c-9.621094-17.214844-28.535156-27.90625-49.363281-27.90625h-11.589844c4.925781-6.679688 10.578125-12.910157 16.089844-18.980469 15.886719-17.484375 32.316406-35.5625 32.34375-64.078125-.042969-37.113282-30.15625-67.308594-67.128906-67.308594-36.972657 0-67.082031 30.191406-67.125 67.339844.027343 28.484375 16.453125 46.5625 32.339843 64.046875 5.515626 6.070312 11.167969 12.300781 16.089844 18.980469h-12.949218c-20.804688 0-39.714844 10.679687-49.371094 27.921874l-25.105469 45.25c-.238281.433594-.453125.875-.644531 1.316407-8.1875 8.886719-13.15625 20.429687-13.15625 33.042969v72.539062c0 8.28125 6.71875 15 15 15h35.339844c8.285156 0 15-6.71875 15-15v-5.050781h107.828124v5.050781c0 8.28125 6.714844 15 15 15h35.339844c8.285156 0 15-6.71875 15-15v-20.050781c0-8.28125-6.714844-15-15-15zm-140.714844-228.042969c.023438-20.589844 16.679688-37.34375 37.128907-37.34375s37.105469 16.753906 37.128906 37.3125c-.019531 16.90625-10.84375 28.820312-24.546875 43.902344-4.1875 4.609375-8.453125 9.300781-12.582031 14.332031-4.128907-5.03125-8.394531-9.722656-12.582031-14.332031-13.703126-15.082032-24.527344-26.996094-24.546876-43.871094zm5.484376 113.023438h61.929687c9.820313 0 18.914063 4.921874 23.148437 12.492187l7.925782 14.3125h-124.089844l7.917969-14.273437c4.261719-7.613282 13.359375-12.53125 23.167969-12.53125zm0 0"></path><path d="m328.84375 338.230469c0 7.378906-5.984375 13.363281-13.367188 13.363281-7.378906 0-13.363281-5.984375-13.363281-13.363281 0-7.382813 5.984375-13.367188 13.363281-13.367188 7.382813 0 13.367188 5.984375 13.367188 13.367188zm0 0"></path><path d="m209.21875 338.230469c0 7.378906-5.984375 13.363281-13.367188 13.363281-7.378906 0-13.363281-5.984375-13.363281-13.363281 0-7.382813 5.984375-13.367188 13.363281-13.367188 7.382813 0 13.367188 5.984375 13.367188 13.367188zm0 0"></path><path d="m270.226562 138.585938c0-7.382813-5.933593-13.367188-13.25-13.367188-7.320312 0-13.253906 5.984375-13.253906 13.367188 0 7.378906 5.933594 13.363281 13.253906 13.363281 7.316407 0 13.25-5.984375 13.25-13.363281zm0 0"></path></g></svg>